<svg xmlns="http://www.w3.org/2000/svg" viewBox="89.275 92.642 182.451 175.736" width="380" height="380"><defs><style>.cls-2{fill:#668105}</style></defs><g id="LOGO"><path d="m268.688 162.193-.257-.655-24.833-64.809a6.469 6.469 0 0 0-2.555-3.078 6.65 6.65 0 0 0-7.6.408 6.65 6.65 0 0 0-2.204 3.344l-16.767 51.3h-67.896l-16.767-51.3a6.517 6.517 0 0 0-2.204-3.353 6.65 6.65 0 0 0-7.6-.408 6.526 6.526 0 0 0-2.555 3.078L92.568 161.5l-.247.655a46.113 46.113 0 0 0 15.295 53.295l.085.067.228.162 37.829 28.329 18.715 14.165 11.4 8.607a7.667 7.667 0 0 0 9.272 0l11.4-8.607 18.715-14.165 38.057-28.5.095-.076a46.132 46.132 0 0 0 15.276-53.238Z" style="fill:#4F6700"/><path class="cls-2" d="m268.688 162.193-.257-.655a83.885 83.885 0 0 0-33.392 15.01L180.5 217.787a53074.013 53074.013 0 0 0 34.742 26.258l38.057-28.5.095-.076a46.132 46.132 0 0 0 15.295-53.276Z"/><path d="m145.758 244.045 18.715 14.165 11.4 8.607a7.667 7.667 0 0 0 9.272 0l11.4-8.607 18.715-14.165s-16.188-12.245-34.76-26.258c-18.573 14.012-34.742 26.258-34.742 26.258Z" style="fill:#7F9B27"/><path class="cls-2" d="M125.951 176.548A83.78 83.78 0 0 0 92.568 161.5l-.247.655a46.113 46.113 0 0 0 15.295 53.295l.085.067.228.162 37.829 28.329 34.742-26.259Z"/></g></svg>
